<svg width="1308" height="123" viewBox="0 0 1308 123" fill="none" xmlns="http://www.w3.org/2000/svg">
<path d="M0 13V28.81C13 49.92 27.64 69.86 47.69 85.05C99.41 124.27 165 124 224.58 104.58C255.73 94.43 284.67 78.51 314.25 64.78C355.17 45.78 398.98 18.78 445.08 15.11C481.34 12.26 515.98 24.53 543.68 46.67C575.45 72.06 606 108.67 647.31 119.67C687.75 130.46 728.66 112.98 766.44 95.39C804.22 77.8 841.6 56.39 883.36 52.34C943.09 46.49 996.64 75.22 1052.26 91.18C1082.46 99.84 1111.26 97.35 1139.35 83.68C1161.78 72.79 1187.35 56.75 1200 34.44V13H0Z" fill="#3D9640"/>
<path d="M108 13V59.29C155.79 81.49 211.59 91.46 266 87.29C336.36 81.92 402.33 53.98 472.8 49.79C546.64 45.43 620.34 66.67 691 85.05C760.27 103.05 829.3 109.93 900.4 98.13C936.55 92.13 970.25 80.29 1004.85 68.79C1097.49 38 1221 -1.29 1308 65.47V13H108Z" fill="#074096"/>
<path d="M67 0V5.63C216.93 59 381.09 71.32 542.83 42.57C585.83 34.93 627.06 22.45 670.44 16.11C729.44 7.48 782.92 28.35 836 51.51C894.93 77.22 953 95.24 1018.2 90C1104.73 83 1190.66 44.29 1267 5.19V0H67Z" fill="#AE3939"/>
</svg>
